<svg id="Layer_1" data-name="Layer 1" xmlns="http://www.w3.org/2000/svg" viewBox="0 0 1990.71 2041.78"><defs><style>.cls-1{fill:#fff;}</style></defs><path class="cls-1" d="M1987.72,945.69c-1.68-21.76-3.59-43.49-6.56-65.1a1042.26,1042.26,0,0,0-96.28-318.22,1034.22,1034.22,0,0,0-69.39-120.26c-33.42-50-71.23-96.47-112.65-140a949.14,949.14,0,0,0-72-67.76A1019.51,1019.51,0,0,0,1527.1,157a983.43,983.43,0,0,0-137.24-74.74,958.65,958.65,0,0,0-215.19-67.15C1128.49,6.44,1082,.33,1035,.51c0,.11,0,.22,0,.33h-8l-6,.05h0l-8,0c-3.71-.22-7.54,1-11.11-.9h-21c-2.9,1.8-6.06.83-9.12.86h-8.95l-6,0h-5c0-.11,0-.22,0-.33C937,.81,922.16,1,907.34,2.16a877.69,877.69,0,0,0-92.05,12.5A971.52,971.52,0,0,0,667.77,54.33,976.94,976.94,0,0,0,433.11,175.42a1024.83,1024.83,0,0,0-121.4,99.93c-19.63,18.77-38.17,38.6-56.16,58.95a1020.57,1020.57,0,0,0-160.73,246q-21.4,46.05-38.21,93.94A1020.81,1020.81,0,0,0,15.5,829.11C6.71,877.3.48,925.76.51,974.85a1.83,1.83,0,0,1,.33,0v6c0,2.65,0,5.31,0,8h0l0,8h0c-.13,3.72,1,7.54-.86,11.12v24c1.81,4.27.82,8.73.85,13.12h0q0,4.47,0,8.93h0c0,2.34,0,4.67,0,7l-.31,0c.1,6,.34,11.9.36,17.82.09,29.73,3.69,59.14,7.79,88.49a1031.38,1031.38,0,0,0,153.52,413.89,1013.44,1013.44,0,0,0,162.68,194.72q32.64,30.3,67.61,57.75a986.38,986.38,0,0,0,204.16,123A972.84,972.84,0,0,0,850.07,2031a951,951,0,0,0,113.84,10.33c23.45.7,46.94.59,70.44-.52,22.8-1.07,45.52-2.68,68.2-5.09A945.91,945.91,0,0,0,1264.2,2004a974.55,974.55,0,0,0,216.25-91.63,1004.42,1004.42,0,0,0,194.72-145.92,978.9,978.9,0,0,0,79.42-85.75,1033.4,1033.4,0,0,0,205.26-407.81,1061.45,1061.45,0,0,0,24.52-137.69c3.55-31.45,5.43-63,6.13-94.65S1990.15,977.26,1987.72,945.69ZM1259.23,141.14c1.83-3.75,3.48-4,7.08-2.77a893.77,893.77,0,0,1,284.14,155.37,32,32,0,0,0,3.49,2.81c2.87,1.72,2.84,3.53,1.41,6.48A1078.65,1078.65,0,0,1,1464.23,457a1115.88,1115.88,0,0,1-74.49,93.85c-1.08,1.22-2.21,2.38-3.52,3.78-14.75-20.07-29.74-39.6-45.37-58.64-55.46-67.6-117.18-128.83-186.23-182.56-3.25-2.54-2.93-3.9-.66-6.72A864.42,864.42,0,0,0,1259.23,141.14Zm-372,745.37c1.71,3.73.94,4.72-2.6,6A1331.85,1331.85,0,0,1,659.31,954a1303.87,1303.87,0,0,1-177.58,19.5c-3.37.14-4.3-.93-4.67-4A1387.3,1387.3,0,0,1,466.51,791.6a1304.54,1304.54,0,0,1,7.18-131.67c.34-3.22,1.27-4,4.41-4.06,94-1.16,184.56-20.08,272.24-53.47,4.75-1.81,6.55-1.16,8.67,3.5Q822.9,746.3,887.2,886.51ZM846.85,559c87.67-45.58,166.27-103.57,236.29-173.25,1.37-1.36,2.49-3.1,4.6-3.84l2.75,2.12c59,45.39,112.3,96.71,160.7,153.2q34.3,40.07,65,83c2.06,2.88,2.45,4.46-.47,7.19-99.4,93-211.18,167.59-334.6,224.89-3.54,1.64-4.55,1.05-6-2.21Q910.12,707.66,845,565.36C843.58,562.37,843.32,560.84,846.85,559ZM498.09,1067.89a1361.69,1361.69,0,0,0,243.49-33.51,1386.4,1386.4,0,0,0,183.51-55.52c3.31-1.25,4.2-.21,5.42,2.46q77.52,169.77,155.24,339.46c1.83,4-.38,4.24-3,5.24A1560.92,1560.92,0,0,1,889,1386.91a1596.71,1596.71,0,0,1-186.91,34.17c-25.3,3.08-50.65,5.54-76.14,7.56-3.42,1.07-4-1.79-5.17-3.92a1234,1234,0,0,1-70.34-155.65,1349.74,1349.74,0,0,1-56.29-196.28C493.33,1069,494.2,1068.07,498.09,1067.89ZM1018.87,946c-2-4.36-1.41-5.9,2.88-7.87A1357.71,1357.71,0,0,0,1290,774.69q40.39-31.52,78.08-66.25c3-2.75,4.11-2.64,6.23.95,64.18,108.49,112.24,223.77,145.77,345.2.22.8.52,1.58.7,2.13.47,2.6-1.56,3.38-2.83,4.52q-38.65,35.13-80.15,66.88c-80.26,61.63-166.55,113.3-258,156.54-4.1,1.94-5.5,1.26-7.37-2.82Q1095.84,1113.82,1018.87,946Zm148.65-833.62c-6.43,11.7-12.36,23-18.73,34a832.66,832.66,0,0,1-73,105.93c-2.68,3.34-4.33,2-6.81.46a1021.15,1021.15,0,0,0-242.33-113c-17-5.34-34.06-10.16-51.24-14.73-.92-.24-2.07,0-2.66-1.69C903.27,89.93,1034.53,86.33,1167.52,112.39Zm-160.73,213.8c.11,1.39-.84,1.92-1.52,2.57A881.7,881.7,0,0,1,807.5,472.38c-3.49,1.85-4.46,1.23-6-2.1Q741.27,338.06,680.8,205.94c-.54-1.2-1-2.42-1.81-4.24Q855.42,232.66,1006.79,326.19ZM489.2,554A1243.21,1243.21,0,0,1,525,412.55a1126.3,1126.3,0,0,1,68.65-168.07c7.45,16.31,14.54,31.85,21.65,47.39q49.48,108.3,99.11,216.54c2,4.44,1,5.63-3.07,7.12-53.71,19.77-108.79,33.84-165.69,40.59-17,2-34.1,3.54-51.26,4.07C488,560.39,488,560.44,489.2,554ZM242.85,511.51q93.79-145.69,233.68-247.93c.92-.67,1.89-1.27,4-2.68-12.33,28.38-23.16,55.67-33,83.36A1292.7,1292.7,0,0,0,393.9,546.41c-1.75,9.64-1.69,9.74-11,8.37a582.58,582.58,0,0,1-138.09-37.92C242,515.7,240.58,515,242.85,511.51ZM100.18,920.2c2.48-20.49,5.17-41,8.6-61.31a931.31,931.31,0,0,1,52.14-187q13.89-35.26,30.59-69.3c1.5-3.08,2.6-4.11,6.18-2.53a659,659,0,0,0,177.55,49.67c3.06.42,3.79,1.17,3.47,4.25a1403.06,1403.06,0,0,0-6.06,208.64q2.42,53.45,8.58,106.56c.35,3.07,0,4.12-3.3,3.87-4.3-.32-8.65-.08-13-.08-36.6-2.71-73-6.45-109.28-11.9a1140.33,1140.33,0,0,1-134.61-28.59c-5.28-1.46-10.46-3.5-15.83-4.37S99.65,924.51,100.18,920.2ZM170.7,1391a944,944,0,0,1-62.46-213.93A978.33,978.33,0,0,1,95.12,1028.4c-.05-3.55.81-4.13,4.09-3.21a1200.82,1200.82,0,0,0,157.73,32.39,1231,1231,0,0,0,134.37,11.23c3.73.1,5.33.77,6.12,4.88a1415.54,1415.54,0,0,0,66.45,235.81q22.88,60.4,51.33,118.4c.71,1.46,1.4,2.93,2.35,4.94-26.66.43-52.47-.22-78.26-1.34q-45.45-2-90.69-6.72-51.41-5.43-102.34-14.33c-22.93-4-45.72-8.77-68.49-13.64A8.75,8.75,0,0,1,170.7,1391Zm267,353a19.56,19.56,0,0,1-6.49-3.55A922.43,922.43,0,0,1,229.84,1506.3c-.23-.38-.4-.8-1-2,8.58,1.32,16.58,2.49,24.55,3.8,37.31,6.13,74.83,10.52,112.49,13.91,61.14,5.5,122.41,6.9,183.76,5.74,2.33,0,4.77.32,7-.22,10-2.48,15,2.27,20.13,10.64,53.83,87.39,117.86,166.56,192.84,236.77,7.78,7.29,15.76,14.36,23.64,21.54.47.42,1.15.75.72,2.07-5.89,0-12,.07-18.06,0a1171.83,1171.83,0,0,1-156.34-11.9A1074,1074,0,0,1,437.68,1744Zm256.39,147.7-4.07-1.44c2.77-.63,4.43-.59,6,.38a1287.64,1287.64,0,0,0,140.3,2.14c23.45-1,46.89-2.33,70.25-4.76a14.76,14.76,0,0,1,10.27,2.41,1011.44,1011.44,0,0,0,87.35,51c1.53.81,3,1.73,5.48,3.15C900.42,1946.2,795.64,1928.52,694.07,1891.72Zm247.12-103c-3.28.45-5.69-.56-8.23-2.39A1002.47,1002.47,0,0,1,754.65,1621.5a1093.2,1093.2,0,0,1-72.82-95.79c-1.21-1.78-2.38-3.58-3.93-5.91,8.26-1,16-1.92,23.68-2.78,39.23-4.33,78.21-10.29,117-17.52a1682.41,1682.41,0,0,0,229.53-59.65q37.55-12.66,74.42-27.16c3.19-1.26,4.68-1.2,6.25,2.25q65,142.66,130.3,285.18c1.57,3.43.73,4.38-2.32,5.61a1291.93,1291.93,0,0,1-216.69,66.08C1007.33,1778.71,974.34,1784.14,941.19,1788.67Zm393.39,87.92c-42,17.3-84.93,31.85-129.11,42.61a12.08,12.08,0,0,1-6.82,0,953,953,0,0,1-133.55-53.55,11.91,11.91,0,0,1-1.67-1.42A1363.25,1363.25,0,0,0,1296,1792.39c3.65-1.5,4.86-.78,6.38,2.59q17,37.73,34.43,75.25C1338.37,1873.5,1338.44,1875,1334.58,1876.59Zm215.11-179c-3.64,18.94-7.84,37.77-12.41,56.51a11.42,11.42,0,0,1-4.39,6.88,922.64,922.64,0,0,1-104.27,69.29c-3.19,1.82-4.64,2.09-6.38-1.79-10.94-24.41-22.12-48.71-33.32-73-1.28-2.78-1.72-4.29,1.77-6a1321.21,1321.21,0,0,0,163.42-96.73c1.06-.74,2-1.84,4-1.87C1555.28,1666.54,1552.68,1682.09,1549.69,1697.57Zm22.81-191.83c-.42,11.5-4.66,18.08-13.27,24.83A1261.37,1261.37,0,0,1,1352,1662.5c-3.79,1.93-5,1.29-6.75-2.45Q1281,1519,1216.4,1378.06c-1.71-3.74-1.28-5,2.53-6.79,116.25-54.56,224.32-122,322.87-204.55,1.13-.94,2.29-1.85,4-3.27,2.06,11.16,4.1,21.7,6,32.28,6.84,39.21,12.16,78.63,15.73,118.27A1511.09,1511.09,0,0,1,1572.5,1505.74Zm25.69-524c-4.82-14.48-9.39-28.53-14.16-42.51-35.51-104-81.46-203.16-139.21-296.74-3-4.9-2.92-7.65,1.08-12A1179.93,1179.93,0,0,0,1608.2,407.3c7.47-13.32,14.6-26.83,22-40.52,12.94,13.23,25.24,26.75,37.18,40.61a932.69,932.69,0,0,1,146.07,231.17,9.69,9.69,0,0,1,0,8.47q-73.32,174.83-199.1,316.65C1609.14,969.65,1603.77,975.53,1598.19,981.73ZM1801,1429.05a868,868,0,0,1-47.74,87.41,919.37,919.37,0,0,1-93,125.27c-1.51,1.71-3,3.4-5.53,6.13,1.16-8.93,2.27-16.53,3.11-24.15q2.92-26.54,5.61-53.11a7.73,7.73,0,0,1,2.72-5.54A1204.22,1204.22,0,0,0,1800,1428h0l2.54-3.61A4.89,4.89,0,0,1,1801,1429.05Zm89.87-340.56a19,19,0,0,1-1.68,5.68c-40,100.91-95.55,192.57-165,275.89q-26.1,31.29-54.5,60.54c-1.62-1-.89-2.45-.91-3.63a1571,1571,0,0,0-11.09-166,1539.25,1539.25,0,0,0-29.45-167c-.85-3.61-.28-6,2.46-8.73,91.38-91.46,167.6-194.1,227.28-308.9.68-1.31,1.44-2.57,2.47-4.4,5.27,18.81,9.56,37.19,13.35,55.68,11.38,55.59,18.13,111.71,19.12,168.48C1893.43,1026.94,1893,1057.73,1890.86,1088.49Z"/><path class="cls-1" d="M.5,1045c-.28-4.36.58-8.75-.5-13.07v13l.5.07Z"/><path class="cls-1" d="M1013,.5h0c0-.16-.05-.33-.06-.5h-11C1005.55,1.07,1009.28.24,1013,.5Z"/><path class="cls-1" d="M.5,996.84l-.5.07v11C1.07,1004.26.25,1000.53.5,996.84Z"/><path class="cls-1" d="M963,.5h8.8c0-.16.06-.32.07-.49h-9c0,.17,0,.34,0,.5Z"/><path class="cls-1" d="M972.35.47C975.2.36,978.1,1,980.91,0h-9C972.2.18,972.34.33,972.35.47Z"/><path class="cls-1" d="M972.35.47l-.51,0c0,.13,0,.25-.05.37C972.17.76,972.35.63,972.35.47Z"/><path class="cls-1" d="M.5,1053.7v-8.44c-.19,0-.36-.07-.5-.35v9a4.45,4.45,0,0,0,.5,0Z"/><path class="cls-1" d="M.5,1045.26a.72.72,0,0,0,.35-.22h0l-.35,0Z"/><path class="cls-1" d="M1013.31.5h7.63c0-.16,0-.33,0-.5h-8C1013.22.15,1013.35.31,1013.31.5Z"/><path class="cls-1" d="M1013.3.56s0,0,0-.06H1013c0,.13,0,.27,0,.4S1013.21.78,1013.3.56Z"/><path class="cls-1" d="M1034.28.5h.67c0-.17,0-.34,0-.51h-8c0,.17,0,.34,0,.5Z"/><path class="cls-1" d="M.5,981.25v-.41H.42l-.42.07v8a2.92,2.92,0,0,1,.5-.09Z"/><path class="cls-1" d="M.5,996.55v-7.2c-.14,0-.31-.1-.5-.44v8C.14,996.62.31,996.51.5,996.55Z"/><path class="cls-1" d="M.5,996.55v.28h0l.36-.05h0A.73.73,0,0,0,.5,996.55Z"/><path class="cls-1" d="M.5,989v.35q.2-.06.33-.54H.5Z"/><path class="cls-1" d="M.5,1054.26c-.18,0-.35-.06-.5-.36v7l.41.12H.52c0-.21,0-.41,0-.62Z"/><path class="cls-1" d="M.5,1054.26a.72.72,0,0,0,.34-.29h0c-.11,0-.22,0-.34,0Z"/><path class="cls-1" d="M957.1.5h5.41a.26.26,0,0,1,0-.24c.12-.17.24-.26.36-.26h-6a4.07,4.07,0,0,1,0,.5Z"/><path class="cls-1" d="M962.51.5a.72.72,0,0,0,.33.36h0c0-.12,0-.24,0-.36Z"/><path class="cls-1" d="M1021.31.5h5.16c0-.14.09-.31.43-.5h-6C1021.23.15,1021.36.32,1021.31.5Z"/><path class="cls-1" d="M1021.29.56s0,0,0-.06h-.37c0,.13,0,.25,0,.38h0C1021.08.88,1021.19.77,1021.29.56Z"/><path class="cls-1" d="M1026.78.5h-.31c0,.13.21.23.52.33,0-.11,0-.22,0-.33Z"/><path class="cls-1" d="M.5,980.56v-5.1c0-.21,0-.41,0-.61a2.22,2.22,0,0,0-.51.06v6C.15,980.61.32,980.5.5,980.56Z"/><path class="cls-1" d="M.5,980.56v.28H.85A.63.63,0,0,0,.5,980.56Z"/><path class="cls-1" d="M956.52.5a.26.26,0,0,1,0-.24c.13-.17.25-.26.37-.26h-5c0,.17,0,.34,0,.51h4.63Z"/><path class="cls-1" d="M956.52.5a.73.73,0,0,0,.34.34h0c0-.11,0-.22,0-.34Z"/><path class="cls-1" d="M694.07,1891.72l1.95-1.06C695,1890.41,693.87,1889.8,694.07,1891.72Z"/><path class="cls-1" d="M1800,1428h0l1,1.09C1801.45,1427.93,1800.87,1427.8,1800,1428Z"/></svg>