<svg id="Layer_1" data-name="Layer 1" xmlns="http://www.w3.org/2000/svg" viewBox="0 0 383.86 383.86"><defs><style>.cls-1{fill:#fefefe;}</style></defs><path class="cls-1" d="M195.32,382.55c5.23-2.64,7.6-7.84,10.66-12.3,19.13-27.9,39.44-55,58.17-83.16,11.41-17.16,22.25-34.66,31.9-52.89,8.71-16.48,16.35-33.41,21.88-51.23,5.47-17.64,8.9-35.67,7.86-54.19-1.73-30.64-12.48-57.77-32.5-81.22C277,28.43,256.62,15.41,233,7.38,224.56,4.52,215.81,3,207,1.74c-1.19-.17-2.93.32-3.14-1.74h-1.5c-.17.93-.84.72-1.45.64-.66.13-1.24.07-1.55-.64H183.65c-.5.85-1,1.07-1.5,0h-3c-.91,2.77-3.53,1.91-5.33,2.18A133.55,133.55,0,0,0,140,11.48c-25.66,11.15-46.28,28.25-61.28,52a134.08,134.08,0,0,0-19.81,55.24c-2,15.9-.83,31.63,2.53,47.23,4,18.53,10.73,36.08,18.79,53.2,14.38,30.5,32.86,58.5,51.93,86.17,16.58,24.05,34,47.52,50.36,71.72a12.7,12.7,0,0,0,4.45,4.44c.91.49,2.18.87,2,2.38h6A1.06,1.06,0,0,1,195.32,382.55Zm-5-32C164.68,313.69,137.47,277.9,114.94,239c-13.19-22.8-24.76-46.34-31.25-72.08-2.63-10.44-4.19-21-4.24-28.09,0-60.2,42.21-108.27,98.1-115.41a112.72,112.72,0,0,1,125.9,97.2c3,22.61-1.51,44.22-9.18,65.32C283,217,266,245.19,247.84,272.68c-17.39,26.35-36.18,51.72-54.25,77.6C192.48,351.86,191.93,352.77,190.35,350.51Z"/><path class="cls-1" d="M183.65,0h-1.5A1,1,0,0,0,183.65,0Z"/><path class="cls-1" d="M200.92.39c0-.13,0-.26,0-.39h-1.5c.42.46,1,.37,1.5.39Z"/><path class="cls-1" d="M201.14.38A1.46,1.46,0,0,0,202.39,0h-1.5C201.11.12,201.18.25,201.14.38Z"/><path class="cls-1" d="M201.14.41s0,0,0,0h-.22a2.11,2.11,0,0,0,0,.25C201,.64,201.08.56,201.14.41Z"/><path class="cls-1" d="M192.08,67.48A67.47,67.47,0,1,0,259.36,135,67.57,67.57,0,0,0,192.08,67.48Zm-.17,112.45a45,45,0,1,1,45-45.09A45.15,45.15,0,0,1,191.91,179.93Z"/></svg>