<svg id="Layer_1" data-name="Layer 1" xmlns="http://www.w3.org/2000/svg" xmlns:xlink="http://www.w3.org/1999/xlink" viewBox="0 0 64.8 67.73"><defs><style>.cls-1{fill:url(#linear-gradient);}</style><linearGradient id="linear-gradient" x1="31.44" y1="61.22" x2="32.48" y2="17.92" gradientUnits="userSpaceOnUse"><stop offset="0" stop-color="#279912"/><stop offset="1" stop-color="#79c01a"/></linearGradient></defs><path class="cls-1" d="M20.44,27.75h0a16.07,16.07,0,0,1,12.07-4.61c5.32.06,10.63.08,15.94,0a15.86,15.86,0,0,0,12.18-5.76,15.26,15.26,0,0,0,3.86-7.89A13.1,13.1,0,0,0,63.35.55c-.21-.72-.53-.69-1-.16-2.72,3.3-6.3,4.5-10.49,4.47-7.06-.06-14.12,0-21.18,0a18.09,18.09,0,0,0-4.58.41l-1.87.36a30.62,30.62,0,0,0-17.33,11,10.26,10.26,0,0,0-2.19,3.15h0A23.83,23.83,0,0,0,1.4,27.16,27.76,27.76,0,0,0,0,37.75,30.09,30.09,0,0,0,3.17,50a22,22,0,0,0,3.71,5.81c.7,1.21,1.9,2,2.73,3.07.22.23.43.47.67.68a31,31,0,0,0,20,8.16,29.49,29.49,0,0,0,15.13-3.3A29,29,0,0,0,57.11,54.32a.55.55,0,0,1,0-.35l0,.35c.23-.33.47-.65.69-1A26.92,26.92,0,0,0,61.88,44c.17-.77.36-1.55.52-2.33a26.4,26.4,0,0,0,.22-9.17,9.4,9.4,0,0,1-.19-1.06,25,25,0,0,0-1.62-6.48c-.28-.8-.63-1-1.39-.46s-1.71,1-2.58,1.5A24.84,24.84,0,0,1,46.1,27.92c-5-.06-9.9,0-14.85,0a10.33,10.33,0,0,0-10.2,9.12,9.24,9.24,0,0,0,1.43,7,10.47,10.47,0,0,0,4.85,4.29c5,2.39,12.29.9,16.62-3.33a22.2,22.2,0,0,0,5.2-6.39l.06,1.07.09-.27a.58.58,0,0,1-.09.27A16,16,0,0,1,47,46.13a18.21,18.21,0,0,1-6.7,6l-.74.4-3.35,1.08-.75.16-2.34.3h0a17.67,17.67,0,0,1-6.32-.86,18.91,18.91,0,0,1-7.6-5.42l-1.44-2.13h0C14.85,39.13,15.81,33.17,20.44,27.75Z"/></svg>