<svg id="Layer_1" data-name="Layer 1" xmlns="http://www.w3.org/2000/svg" viewBox="0 0 767.8 1023.79"><defs><style>.cls-1{fill:#fff;}</style></defs><path class="cls-1" d="M767.8,363.93h0v-5a1.74,1.74,0,0,0-.5-.08c-.18-11.41-.45-22.85-1.93-34.14-4.82-36.79-16.2-71.67-32-105.14a382.68,382.68,0,0,0-62.67-93.94,386.35,386.35,0,0,0-70-61.4c-34.28-23.25-71.26-41-111.21-52.1C472.88,7.5,456.17,3,438.73,1.91,428.79,1.3,418.8,1.25,408.89,0h-49c-4.9.91-9.87.7-14.8,1-12.66.66-25.28,1.42-37.75,4A388.77,388.77,0,0,0,11.5,280.87C6.83,297.61,2.85,314.49,1.84,332c-.52,9-.46,18-1.84,26.94v2H0v18H0v12H0v11H0v11a2.22,2.22,0,0,1,.54,1.5h0c0,.61-.09,1.24-.05,1.84.75,12.36.57,24.82,2.35,37.07a513,513,0,0,0,21.07,87.79A742.29,742.29,0,0,0,71,651.75q21.9,41.87,47.54,81.49a1273.21,1273.21,0,0,0,102,135.54c21.14,24.63,43.16,48.45,65.46,72,16,16.93,33,32.92,50,48.89,7.39,7,14.72,14,22.5,20.51,6.29,5.27,11.68,12,20.43,13.61h9c4.26-1.07,8.47-2.13,12-5.1,20.7-17.55,40.4-36.2,60-55,18-17.28,35.05-35.55,52.12-53.78q20.15-21.51,39.29-43.88c27.45-32.18,53.59-65.4,77.76-100.16C653.94,730,676.9,693,697,654.17c21.86-42.25,40.12-86,53.22-131.77,10.32-36.1,17.4-72.69,17.11-110.41h.08l.42-.07v-5h0v-17h0v-15h0v-11ZM387.8,983.3c-2.63,2.37-4.26,3.09-7.31.28C283.89,894.68,198,796.75,129.6,684.3,94.13,626,65.28,564.73,47.67,498.53,37.69,461,31.59,422.91,32.08,384,33.37,280.26,72.28,192.9,148.7,122.79c51.15-46.93,111.71-75.22,180.2-86.55C469,13.06,613,80.69,685.93,203.82c33.22,56.05,49.68,116.64,49.93,177-.4,63.7-13,120.29-33.6,175.3C675,628.89,636.23,695.3,591,758.09,531.52,840.61,463.28,915.22,387.8,983.3ZM767.47,374.18s0-.07,0-.11v0a7,7,0,0,0,.36.85A3.05,3.05,0,0,1,767.47,374.18Z"/><path class="cls-1" d="M575.84,384.26C576.11,278.5,490,192.13,384.12,192S192,278,192,383.81c-.08,105.6,85.76,191.7,191.46,192.06S575.57,490.17,575.84,384.26Zm-192,159.62c-88.12,0-159.95-71.87-159.93-160S295.78,224,383.92,224s159.94,71.82,159.93,160S472,543.89,383.88,543.88Z"/></svg>